Coordinates
version=1
nRows=30
nColumns=19
inDegrees=yes

Units are S.I. units (second, meters, Newtons, ...)
If the header above contains a line with 'inDegrees', this indicates whether rotational values are in degrees (yes) or radians (no).

endheader
time	pelvis_tilt	pelvis_list	pelvis_rotation	pelvis_tx	pelvis_ty	pelvis_tz	hip_flexion_r	hip_adduction_r	hip_rotation_r	knee_angle_r	knee_angle_r_beta	ankle_angle_r	hip_flexion_l	hip_adduction_l	hip_rotation_l	knee_angle_l	knee_angle_l_beta	ankle_angle_l
     15.30000000	      4.30855995	     -5.43758572	      0.79412989	      1.98730291	      0.87033234	      0.99620494	     23.01049974	      8.38066048	     -4.75952912	     16.57787118	      0.28933844	     -8.60415106	    -22.64433295	    -12.76118659	    -17.21830349	     58.34155574	      1.01825224	    -15.48409130
     15.30666667	      4.63560642	     -5.79542391	      0.41910064	      1.98721607	      0.86763257	      0.99742746	     22.34725561	      8.95764564	     -6.01633666	     18.09897046	      0.31588663	     -8.14605623	    -21.24386965	    -13.27625889	    -16.17004974	     63.09581419	      1.10122970	    -14.91222967
     15.31333333	      5.02601818	     -6.17151258	     -0.08850609	      1.98694622	      0.86462873	      0.99851440	     21.69562613	      9.54736994	     -6.98456210	     20.11757484	      0.35111792	     -7.17608986	    -19.88037147	    -13.65939339	    -15.23996348	     67.71586868	      1.18186486	    -14.55656948
     15.32000000	      4.66248865	     -6.23159278	     -0.63865792	      1.98635684	      0.86081622	      0.99936964	     21.93636216	      9.75224232	     -7.58850987	     22.54442139	      0.39347438	     -5.78777017	    -17.40719931	    -13.60624946	    -14.05594839	     72.39279758	      1.26349267	    -14.44743305
     15.32666667	      4.71686539	     -6.41240619	     -1.37475144	      1.98563810	      0.85705497	      1.00016252	     21.73994979	     10.14021640	     -7.75028455	     25.24141987	      0.44054588	     -3.85451491	    -15.51119098	    -13.61235162	    -13.32586935	     76.74930964	      1.33952815	    -14.44396682
     15.33333333	      4.70184241	     -6.55890130	     -2.21560117	      1.98461054	      0.85308121	      1.00089705	     21.62183321	     10.52850899	     -7.49430463	     28.09160983	      0.49029108	     -1.51092429	    -13.46399775	    -13.58098394	    -12.77219716	     80.94837696	      1.41281570	    -14.51012278
     15.34000000	      4.65249271	     -6.70494823	     -3.11353450	      1.98334446	      0.84899788	      1.00156475	     21.52182294	     10.94189493	     -6.92071187	     31.00919767	      0.54121260	      1.11768099	    -11.31542050	    -13.59519615	    -12.36897989	     84.95645610	      1.48276988	    -14.56045821
     15.34666667	      4.54735206	     -6.85483806	     -4.04625272	      1.98178409	      0.84488115	      1.00222676	     21.44039006	     11.39078997	     -6.09623895	     33.90935036	      0.59182981	      3.92424356	     -9.01283055	    -13.67854217	    -12.04477145	     88.77061902	      1.54933958	    -14.54526573
     15.35333333	      4.47621400	     -7.03207368	     -4.97044210	      1.97994152	      0.84098976	      1.00284056	     21.21187580	     11.88631029	     -5.07042803	     36.62353059	      0.63920119	      6.79532639	     -6.65426047	    -13.86484471	    -11.75967979	     92.33917064	      1.61162256	    -14.46937055
     15.36000000	      4.36400112	     -7.23888369	     -5.79484893	      1.97788678	      0.83736090	      1.00338655	     20.89628241	     12.38418046	     -4.02714715	     39.09767330	      0.68238313	      9.58740225	     -4.10512312	    -14.19071145	    -11.38159018	     95.67603132	      1.66986176	    -14.29475271
     15.36666667	      4.98884185	     -7.68582555	     -6.43749140	      1.97577099	      0.83495832	      1.00374236	     19.47930676	     12.98752290	     -3.07087621	     41.05015834	      0.71646042	     12.27680043	     -2.36743207	    -14.79768706	    -10.99906284	     98.56009227	      1.72019812	    -14.02155415
     15.37333333	      5.51518199	     -8.01903664	     -6.99140672	      1.97332876	      0.83303927	      1.00410062	     18.02442853	     13.44868018	     -2.00090960	     42.68940404	      0.74507066	     14.47992945	     -0.32116165	    -15.30518522	    -10.44033713	    101.15711725	      1.76552476	    -13.70535860
     15.38000000	      4.15622087	     -8.03770425	     -7.43377212	      1.97096075	      0.82947742	      1.00438891	     18.69666541	     13.60317404	     -1.48568583	     44.38641048	      0.77468901	     16.57809551	      4.27176512	    -15.63957122	     -9.25768558	    103.86516184	      1.81278905	    -13.16885595
     15.38666667	      4.18135184	     -8.27634525	     -7.66500708	      1.96864788	      0.82812773	      1.00447911	     17.43211108	     13.78802973	     -0.90926776	     45.32960274	      0.79115082	     18.32815827	      7.22239027	    -16.05249315	     -8.18691846	    105.84772082	      1.84739123	    -12.67267878
     15.39333333	      4.34857140	     -8.56339526	     -7.72326806	      1.96651151	      0.82757614	      1.00447850	     15.74416085	     13.92920398	     -0.48195925	     45.77576013	      0.79893773	     19.74245764	     10.07328531	    -16.46454848	     -6.97813011	    107.39189304	      1.87434212	    -12.18840125
     15.40000000	      4.45331614	     -8.73412694	     -7.72055141	      1.96454399	      0.82757311	      1.00450469	     13.91703798	     13.92553712	     -0.09374435	     45.83806009	      0.80002507	     20.87230779	     13.01296636	    -16.68432120	     -5.74891149	    108.48958598	      1.89350048	    -11.72280580
     15.40666667	      4.62075892	     -8.87764930	     -7.63970162	      1.96287652	      0.82825348	      1.00454601	     11.78004287	     13.85841123	      0.24326421	     45.46845166	      0.79357419	     21.68391270	     15.81811084	    -16.79474649	     -4.53894961	    109.11208006	      1.90436505	    -11.28049374
     15.41333333	      4.72259780	     -8.70578945	     -7.89546262	      1.96139846	      0.82949126	      1.00504515	      9.58851544	     13.56032429	      1.04100634	     44.92679581	      0.78412051	     22.24736239	     18.40990599	    -16.61708875	     -3.89457849	    109.17760106	      1.90550861	    -10.84023267
     15.42000000	      4.89485887	     -8.89029290	     -7.45757419	      1.96047564	      0.83128442	      1.00504641	      6.97797505	     13.48220876	      1.01445872	     43.62808706	      0.76145377	     22.37334090	     21.07627820	    -16.62405893	     -2.53306015	    108.94333404	      1.90141988	    -10.53471881
     15.42666667	      4.69961513	     -8.52890904	     -7.72514095	      1.95982825	      0.83334837	      1.00585092	      4.76798841	     13.00286962	      1.78527492	     42.43133659	      0.74056653	     22.30929846	     23.60866338	    -16.25860268	     -2.19629108	    108.09587121	      1.88662886	    -10.10962607
     15.43333333	      5.60121087	     -8.51677889	     -7.53711827	      1.95944786	      0.83693020	      1.00640346	      0.99899756	     12.70281266	      2.27765677	     40.43308606	      0.70569048	     21.76884421	     24.76522795	    -16.12169173	     -1.71947020	    106.80010256	      1.86401343	     -9.82577147
     15.44000000	      5.81140146	     -8.21494978	     -7.69242148	      1.95948980	      0.84016348	      1.00733913	     -1.97728760	     12.18781445	      3.02035351	     38.51153514	      0.67215309	     20.87990906	     26.35275032	    -15.82549675	     -1.67973564	    105.13588841	      1.83496741	     -9.32270203
     15.44666667	      6.12238288	     -7.72407264	     -8.05459263	      1.95983629	      0.84396561	      1.00862665	     -5.11291441	     11.41042404	      3.95387574	     36.40838409	      0.63544618	     19.70424724	     27.45179295	    -15.49205023	     -2.14853968	    102.98902854	      1.79749764	     -8.95605231
     15.45333333	      6.27124520	     -7.16773224	     -8.50717537	      1.96040625	      0.84783387	      1.00998700	     -8.04289179	     10.51657136	      4.88901297	     34.23070256	      0.59743846	     18.06707827	     28.47228608	    -15.15041629	     -2.81822517	    100.51079747	      1.75424435	     -8.45884199
     15.46000000	      6.40385300	     -6.45608315	     -9.07666070	      1.96121850	      0.85191363	      1.01148990	    -10.87383896	      9.36464975	      5.78977290	     32.02985404	      0.55902641	     16.10352622	     29.21250374	    -14.73428097	     -3.81021073	     97.64875822	      1.70429234	     -7.92897424
     15.46666667	      6.43645349	     -5.69413312	     -9.68208078	      1.96227870	      0.85601486	      1.01302989	    -13.51947665	      8.10476846	      6.60051521	     29.79629568	      0.52004346	     13.79534403	     29.83673352	    -14.32517775	     -4.96141292	     94.47710207	      1.64893650	     -7.39118675
     15.47333333	      6.36003684	     -4.89480488	    -10.30264004	      1.96347752	      0.86002872	      1.01454440	    -15.92023897	      6.76084526	      7.28351427	     27.60597581	      0.48181517	     11.14705084	     30.39391192	    -13.90163926	     -6.21410895	     91.01944440	      1.58858899	     -6.84774658
     15.48000000	      6.21814259	     -4.02650709	    -10.84244360	      1.96478671	      0.86393096	      1.01591805	    -18.08473514	      5.33365226	      7.71025576	     25.52622129	      0.44551661	      8.23906016	     30.88342211	    -13.34591606	     -7.47493567	     87.28374694	      1.52338877	     -6.32262546
     15.48666667	      5.86055090	     -3.15582763	    -11.22174202	      1.96628646	      0.86752519	      1.01701009	    -19.89677964	      3.96497092	      7.82454527	     23.51742258	      0.41045646	      5.13054658	     31.51367243	    -12.69616714	     -8.60561144	     83.31123389	      1.45405534	     -5.86364689
     15.49333333	      5.49184881	     -2.31483888	    -11.48139131	      1.96779835	      0.87092757	      1.01788742	    -21.54273256	      2.66511954	      7.70627168	     21.67273249	      0.37826054	      1.86208146	     32.04245859	    -11.96270583	     -9.63930535	     79.09894630	      1.38053705	     -5.43090902
